<svg width="20" height="20" viewBox="0 0 48 48" fill="none" xmlns="http://www.w3.org/2000/svg"><path d="M29.368 4C28.0527 4 26.7819 4.52173 25.8352 5.46844C24.8886 6.41515 24.3669 7.686 24.3669 9.00148V14.3684C24.3669 15.6838 24.8886 16.9547 25.8352 17.9014C26.7819 18.8481 28.0527 19.3698 29.368 19.3698H34.7345C36.0498 19.3698 37.3206 18.8481 38.2673 17.9014C39.2139 16.9547 39.7356 15.6838 39.7356 14.3684V9.00148C39.7356 7.686 39.2139 6.41515 38.2673 5.46844C37.3206 4.52173 36.0498 4 34.7345 4H29.368Z" fill="#4a9eff"/><path d="M12.1823 9.31322C11.1266 8.25774 9.6817 7.66772 8.18228 7.66772C6.68286 7.66772 5.23813 8.25774 4.18228 9.31322L9.18228 14.3132L12.1823 9.31322Z" fill="#4a9eff"/><circle cx="38" cy="34" r="9" stroke="#4a9eff" stroke-width="3"/><line x1="44" y1="40" x2="38" y2="34" stroke="#4a9eff" stroke-width="3" stroke-linecap="round"/></svg>
